# xmcd CD database file
#
# Track frame offsets:
#	150
#	16541
#	32888
#	47611
#	72131
#	86134
#	103930
#	107921
#	121126
#	134964
#	146363
#	165047
#	185594
#	203775
#	225001
#
# Disc length: 3232 seconds
#
# Revision: 0
# Processed by: cddbd v1.5.2PL0 Copyright (c) Steve Scherf et al.
# Submitted via: CDex 1.70beta2
#
DISCID=c10c9e0f
DTITLE=Sylvain Luc - Joko
DYEAR=2006
DGENRE=Jazz
TTITLE0=Light my Fire
TTITLE1=This Never Happened Before
TTITLE2=Fil bleu
TTITLE3=Guangui
TTITLE4=Terre inconnue
TTITLE5=Stepping out
TTITLE6=Introguito
TTITLE7=Fandanguito
TTITLE8=Coral
TTITLE9=Machination secrète
TTITLE10=Joko
TTITLE11=Mean Old Man
TTITLE12=Accalmies
TTITLE13=Folk Print
TTITLE14=Le roi dans les bois
EXTD=YEAR: 2006
EXTT0=
EXTT1=
EXTT2=
EXTT3=
EXTT4=
EXTT5=
EXTT6=
EXTT7=
EXTT8=
EXTT9=
EXTT10=
EXTT11=
EXTT12=
EXTT13=
EXTT14=
PLAYORDER=
